<?xml version="1.0" encoding="UTF-8"?>
<!DOCTYPE svg PUBLIC "-//W3C//DTD SVG 1.1//EN" "http://www.w3.org/Graphics/SVG/1.1/DTD/svg11.dtd">
<svg xmlns="http://www.w3.org/2000/svg" version="1.1" width="1080px" height="1080px" style="shape-rendering:geometricPrecision; text-rendering:geometricPrecision; image-rendering:optimizeQuality; fill-rule:evenodd; clip-rule:evenodd" xmlns:xlink="http://www.w3.org/1999/xlink">
<g><path style="opacity:0.958" fill="#d9b648" d="M 390.5,371.5 C 393.237,371.37 395.237,372.536 396.5,375C 397.692,378.828 397.692,382.662 396.5,386.5C 428.886,389.011 460.553,395.177 491.5,405C 507.218,410.107 521.385,417.941 534,428.5C 540.429,437.132 542.763,446.799 541,457.5C 540.152,460.698 538.652,463.531 536.5,466C 532.441,467.106 529.275,465.939 527,462.5C 524.125,446.921 516.291,434.421 503.5,425C 498.865,422.347 494.199,419.681 489.5,417C 469.968,408.94 449.635,403.274 428.5,400C 417.328,398.874 406.162,397.708 395,396.5C 393.833,396.833 392.667,397.167 391.5,397.5C 359.852,469.269 318.352,534.602 267,593.5C 257.833,602.667 248.667,611.833 239.5,621C 196.715,659.364 147.048,672.698 90.5,661C 71.1843,654 55.6843,642.166 44,625.5C 39.636,618.411 37.3027,610.745 37,602.5C 40.6068,599.731 43.9401,600.064 47,603.5C 52.8411,625.33 66.3411,640.164 87.5,648C 109.483,653.999 131.483,653.999 153.5,648C 160.189,645.327 166.856,642.661 173.5,640C 179.04,636.73 184.707,633.73 190.5,631C 213.154,614.023 234.321,595.189 254,574.5C 298.079,527.404 336.079,475.737 368,419.5C 371.793,411.948 375.293,404.282 378.5,396.5C 377.624,395.749 376.624,395.249 375.5,395C 309.367,392.539 243.701,396.872 178.5,408C 153.738,412.673 129.738,419.673 106.5,429C 97.0177,433.907 88.0177,439.574 79.5,446C 58.0617,468.041 61.7284,484.708 90.5,496C 108.459,501.739 126.792,506.072 145.5,509C 163.808,511.08 182.141,512.913 200.5,514.5C 200.291,515.086 199.957,515.586 199.5,516C 168.388,518.632 137.388,517.632 106.5,513C 90.2306,510.352 75.2306,504.685 61.5,496C 51.1106,487.167 47.2773,476.001 50,462.5C 50.7584,455.555 53.0917,449.222 57,443.5C 68.4634,429.502 82.6301,419.002 99.5,412C 124.384,402.347 150.051,395.347 176.5,391C 202.067,387.495 227.734,384.828 253.5,383C 290.167,382.333 326.833,382.333 363.5,383C 368.844,383.39 374.178,383.89 379.5,384.5C 380.833,384.167 382.167,383.833 383.5,383.5C 384.975,380.659 386.141,377.659 387,374.5C 388.518,373.837 389.685,372.837 390.5,371.5 Z"/></g>
<g><path style="opacity:0.952" fill="#d9b648" d="M 800.5,450.5 C 803.617,450.642 806.117,451.976 808,454.5C 812.548,466.784 812.548,479.118 808,491.5C 794.885,530.434 773.718,564.101 744.5,592.5C 743.675,593.386 742.675,593.719 741.5,593.5C 740.066,602.108 739.066,610.775 738.5,619.5C 739.678,642.619 748.845,646.285 766,630.5C 771.926,622.306 777.592,613.973 783,605.5C 793.71,558.764 812.544,515.764 839.5,476.5C 843.644,471.855 847.978,467.355 852.5,463C 856.116,460.947 859.616,461.114 863,463.5C 867.065,471.739 868.399,480.406 867,489.5C 862.142,511.444 853.809,531.777 842,550.5C 836.333,558.5 830.667,566.5 825,574.5C 817.946,581.554 810.946,588.554 804,595.5C 800.439,607.366 799.773,619.366 802,631.5C 804.417,638.954 809.25,641.454 816.5,639C 822.547,636.122 827.547,631.956 831.5,626.5C 841.212,614.408 847.712,600.742 851,585.5C 853.194,581.251 855.194,576.918 857,572.5C 861.051,564.118 866.884,557.285 874.5,552C 886.148,550.748 889.315,555.581 884,566.5C 873.867,580.997 865.867,596.664 860,613.5C 855.541,635.4 863.374,642.233 883.5,634C 896.127,624.269 904.961,611.769 910,596.5C 920.194,579.639 933.694,566.139 950.5,556C 961.654,550.551 973.321,549.217 985.5,552C 994.338,556.494 998.505,563.66 998,573.5C 995.718,580.4 990.885,583.4 983.5,582.5C 986.617,559.784 977.95,553.617 957.5,564C 938.806,580.201 926.306,600.368 920,624.5C 917.333,642.682 923.499,646.516 938.5,636C 954.291,621.644 967.624,605.144 978.5,586.5C 990.266,584.074 994.1,588.408 990,599.5C 985.163,606.347 981.163,613.68 978,621.5C 977.333,625.833 977.333,630.167 978,634.5C 981.072,639.581 985.239,640.748 990.5,638C 1005.45,628.373 1016.95,615.539 1025,599.5C 1026.83,597.193 1028.49,597.526 1030,600.5C 1023.42,622.093 1009.92,637.926 989.5,648C 969.715,654.834 958.882,648.001 957,627.5C 950.116,637.385 941.616,645.551 931.5,652C 911.293,658.773 900.459,651.607 899,630.5C 887.123,644.51 871.956,650.343 853.5,648C 844.255,643.018 840.089,635.184 841,624.5C 834.556,634.544 826.056,642.377 815.5,648C 791.432,653.865 780.265,644.365 782,619.5C 775.982,630.19 767.815,639.023 757.5,646C 731.456,655.449 718.623,646.282 719,618.5C 705.88,637.467 688.046,648.967 665.5,653C 642.197,655.86 628.864,645.694 625.5,622.5C 612.659,628.086 602.492,625.086 595,613.5C 593.308,610.356 592.142,607.023 591.5,603.5C 582.233,619.602 570.899,634.102 557.5,647C 540.098,657.885 529.931,653.385 527,633.5C 526.667,627.833 526.333,622.167 526,616.5C 519.967,626.87 512.133,635.704 502.5,643C 491.329,650.05 479.663,651.216 467.5,646.5C 462.224,641.359 459.724,635.026 460,627.5C 453.123,637.377 444.623,645.544 434.5,652C 424.859,656.002 415.859,655.002 407.5,649C 403.136,643.296 401.302,636.796 402,629.5C 394.807,637.184 386.307,643.018 376.5,647C 369.582,648.551 362.582,648.884 355.5,648C 347.577,644.723 343.577,638.723 343.5,630C 345.829,617.51 349.996,605.677 356,594.5C 359.06,587.121 359.06,579.788 356,572.5C 352.739,569.784 349.572,566.951 346.5,564C 345.833,563.333 345.167,563.333 344.5,564C 338.273,581.187 330.606,597.687 321.5,613.5C 319.453,612.073 318.453,610.073 318.5,607.5C 325.528,592.103 332.028,576.436 338,560.5C 337.63,557.395 337.13,554.229 336.5,551C 336.727,544.285 339.393,538.785 344.5,534.5C 347.034,533.212 349.534,533.212 352,534.5C 352.573,539.588 352.073,544.588 350.5,549.5C 350.899,551.197 351.399,552.863 352,554.5C 362.309,559.81 370.309,567.476 376,577.5C 378,583.5 378,589.5 376,595.5C 373.145,604.871 369.478,613.871 365,622.5C 361.709,637.155 367.209,641.322 381.5,635C 390.888,629.401 398.888,622.235 405.5,613.5C 415.495,586.33 433.495,566.163 459.5,553C 468.751,550.263 478.084,549.929 487.5,552C 499.259,557.227 503.093,566.061 499,578.5C 495.518,581.883 491.351,583.216 486.5,582.5C 489.105,573.929 487.439,566.429 481.5,560C 477.167,559.333 472.833,559.333 468.5,560C 459.266,564.37 451.432,570.536 445,578.5C 438.778,587.502 433.112,596.835 428,606.5C 423.628,616.398 421.961,626.732 423,637.5C 423.249,638.624 423.749,639.624 424.5,640.5C 427.811,641.744 431.144,641.744 434.5,640.5C 446.527,631.806 456.861,621.473 465.5,609.5C 470.896,601.789 476.229,594.122 481.5,586.5C 487.994,583.893 492.661,585.726 495.5,592C 489.936,602.295 484.769,612.795 480,623.5C 478.861,639.179 485.028,643.012 498.5,635C 509.814,625.355 519.314,614.188 527,601.5C 527.268,593.019 528.435,584.686 530.5,576.5C 534.833,575.167 539.167,575.167 543.5,576.5C 544.298,578.078 544.798,579.744 545,581.5C 543.378,599.111 542.711,616.778 543,634.5C 545.109,640.988 548.942,642.155 554.5,638C 569.933,622.223 581.767,604.056 590,583.5C 590.456,575.763 591.456,568.096 593,560.5C 596.323,554.092 601.489,551.925 608.5,554C 613.153,557.788 614.653,562.622 613,568.5C 604.508,582.581 602.508,597.581 607,613.5C 613.352,619.93 619.852,619.93 626.5,613.5C 634.026,588.477 648.359,568.311 669.5,553C 680.838,546.332 692.838,544.665 705.5,548C 707.709,549.873 709.542,552.04 711,554.5C 712.9,571.443 707.067,585.11 693.5,595.5C 680.18,605.24 665.347,611.573 649,614.5C 647.674,614.755 646.674,615.422 646,616.5C 643.3,636.988 652.133,646.155 672.5,644C 695.925,635.642 712.758,620.142 723,597.5C 736.59,547.351 758.59,501.351 789,459.5C 792.41,455.888 796.244,452.888 800.5,450.5 Z M 745.5,580.5 C 756.176,548.147 770.51,517.48 788.5,488.5C 792.037,483.421 796.037,478.754 800.5,474.5C 801.523,480.248 801.023,485.915 799,491.5C 790.128,513.91 779.128,535.243 766,555.5C 759.986,564.568 753.152,572.902 745.5,580.5 Z M 855.5,484.5 C 856.117,484.611 856.617,484.944 857,485.5C 856.957,493.019 855.624,500.352 853,507.5C 845.817,526.337 836.484,544.004 825,560.5C 819.904,567.019 814.571,573.352 809,579.5C 810.268,574.251 811.601,568.917 813,563.5C 820.89,544.891 829.223,526.557 838,508.5C 843.098,499.973 848.931,491.973 855.5,484.5 Z M 689.5,555.5 C 691.857,555.337 694.19,555.503 696.5,556C 698.007,557.473 698.674,559.307 698.5,561.5C 697.284,568.595 694.451,574.929 690,580.5C 679.177,591.299 666.677,599.799 652.5,606C 651.056,606.781 649.723,606.614 648.5,605.5C 654.735,588.312 664.735,573.812 678.5,562C 682.262,559.794 685.929,557.627 689.5,555.5 Z"/></g>
<g><path style="opacity:0.918" fill="#004f3e" d="M 217.5,480.5 C 222.067,480.521 225.901,482.188 229,485.5C 234.634,493.28 240.134,501.113 245.5,509C 252.167,509.333 258.833,509.667 265.5,510C 269.485,511.575 271.152,514.242 270.5,518C 261.864,519.52 253.197,520.853 244.5,522C 240.297,530.735 234.63,538.402 227.5,545C 224.048,547.393 220.381,549.226 216.5,550.5C 218.022,543.777 219.856,537.11 222,530.5C 223.469,526.719 225.303,523.219 227.5,520C 222.136,519.171 216.802,519.337 211.5,520.5C 209.614,523.979 207.28,527.146 204.5,530C 203.365,530.749 202.365,530.583 201.5,529.5C 206.221,519.935 206.554,510.268 202.5,500.5C 203.552,500.351 204.552,500.517 205.5,501C 207.35,504.362 209.683,507.362 212.5,510C 216.774,509.709 221.107,509.543 225.5,509.5C 222.428,499.95 219.761,490.283 217.5,480.5 Z"/></g>
<g><path style="opacity:0.957" fill="#d8b747" d="M 896.5,504.5 C 907.925,501.765 912.759,506.098 911,517.5C 906.11,526.351 898.61,529.851 888.5,528C 882.828,525.232 880.994,520.732 883,514.5C 886.531,509.795 891.031,506.462 896.5,504.5 Z"/></g>
</svg>
